HIERARCHY
ROOT Hips
{
 OFFSET 0.000000 0.000000 0.000000
 CHANNELS 6 Xposition Yposition Zposition Yrotation Xrotation Zrotation
 JOINT Chest
 {
  OFFSET 0.000000 9.585900 0.002600
  CHANNELS 3 Yrotation Xrotation Zrotation
  JOINT Chest2
  {
   OFFSET 0.000000 9.601200 -0.005300
   CHANNELS 3 Yrotation Xrotation Zrotation
   JOINT Chest3
   {
    OFFSET 0.000000 9.561800 0.000000
    CHANNELS 3 Yrotation Xrotation Zrotation
    JOINT Chest4
    {
     OFFSET 0.000000 9.552100 0.000000
     CHANNELS 3 Yrotation Xrotation Zrotation
     JOINT Neck
     {
      OFFSET 0.000000 14.453000 0.000000
      CHANNELS 3 Yrotation Xrotation Zrotation
      JOINT Head
      {
       OFFSET 0.000000 8.936500 -0.011300
       CHANNELS 3 Yrotation Xrotation Zrotation
       End Site
       {
        OFFSET 0.000000 17.073600 -0.006000
       }
      }
     }
     JOINT RightCollar
     {
      OFFSET -2.921100 9.558500 0.000000
      CHANNELS 3 Yrotation Xrotation Zrotation
      JOINT RightShoulder
      {
       OFFSET -13.519700 0.000000 0.000000
       CHANNELS 3 Yrotation Xrotation Zrotation
       JOINT RightElbow
       {
        OFFSET 0.000000 -29.696600 0.000000
        CHANNELS 3 Yrotation Xrotation Zrotation
        JOINT RightWrist
        {
         OFFSET 0.000000 -24.004700 0.000000
         CHANNELS 3 Yrotation Xrotation Zrotation
         End Site
         {
          OFFSET 0.000000 -17.728500 0.000000
         }
        }
       }
      }
     }
     JOINT LeftCollar
     {
      OFFSET 2.921100 9.558500 0.000000
      CHANNELS 3 Yrotation Xrotation Zrotation
      JOINT LeftShoulder
      {
       OFFSET 13.519700 0.000000 0.000000
       CHANNELS 3 Yrotation Xrotation Zrotation
       JOINT LeftElbow
       {
        OFFSET 0.000000 -29.696600 0.000000
        CHANNELS 3 Yrotation Xrotation Zrotation
        JOINT LeftWrist
        {
         OFFSET 0.000000 -24.004700 0.000000
         CHANNELS 3 Yrotation Xrotation Zrotation
         End Site
         {
          OFFSET 0.000000 -17.728500 0.000000
         }
        }
       }
      }
     }
    }
   }
  }
 }
 JOINT RightHip
 {
  OFFSET -7.771700 -0.012900 -0.001300
  CHANNELS 3 Yrotation Xrotation Zrotation
  JOINT RightKnee
  {
   OFFSET 0.000000 -40.869800 0.001200
   CHANNELS 3 Yrotation Xrotation Zrotation
   JOINT RightAnkle
   {
    OFFSET 0.000000 -39.717900 0.002100
    CHANNELS 3 Yrotation Xrotation Zrotation
    JOINT RightToe
    {
     OFFSET 0.000000 -4.965400 11.033500
     CHANNELS 3 Yrotation Xrotation Zrotation
     End Site
     {
      OFFSET 0.000000 -1.423100 5.872300
     }
    }
   }
  }
 }
 JOINT LeftHip
 {
  OFFSET 7.771700 -0.012900 -0.001300
  CHANNELS 3 Yrotation Xrotation Zrotation
  JOINT LeftKnee
  {
   OFFSET 0.000000 -40.869800 0.001200
   CHANNELS 3 Yrotation Xrotation Zrotation
   JOINT LeftAnkle
   {
    OFFSET 0.000000 -39.717900 0.002100
    CHANNELS 3 Yrotation Xrotation Zrotation
    JOINT LeftToe
    {
     OFFSET 0.000000 -4.965400 11.033500
     CHANNELS 3 Yrotation Xrotation Zrotation
     End Site
     {
      OFFSET 0.000000 -1.423100 5.872300
     }
    }
   }
  }
 }
}
MOTION
Frames: 13
Frame Time: 0.008333
0.000000 85.388000 0.000000 0.000000 -5.767877 0.000000 0.000000 11.653817 0.000000 0.000000 -5.885947 0.000000 0.000000 -0.000000 0.000000 0.000000 -0.000000 0.000000 0.000000 12.528835 0.000000 0.000000 0.711642 0.000000 0.000000 -0.000000 0.000000 0.000000 0.000000 -90.000000 0.000000 -2.309062 0.000000 0.000000 2.309062 0.000000 0.000000 -0.000000 0.000000 0.000000 -0.000000 90.000000 0.000000 -2.309062 0.000000 0.000000 2.309062 0.000000 0.000000 8.520406 0.000000 0.000000 1.905762 0.000000 -0.000000 -4.658285 0.000000 0.000000 -0.000000 0.000000 0.000000 8.520406 0.000000 0.000000 1.905762 0.000000 -0.000000 -4.658285 0.000000 0.000000 -0.000000 0.000000
-145.393015 49.141038 18.829257 176.443095 -31.983661 -4.655941 -0.376815 18.782382 1.671253 -0.127406 2.184876 0.153528 -0.142719 3.579159 0.262090 -0.461599 16.241003 1.167420 -1.328522 21.030990 2.159343 -3.027824 3.339351 4.297775 3.561508 -12.453594 -3.522771 0.751837 1.641516 0.142777 -46.313450 -23.263792 75.964004 -5.129389 -7.321967 -5.414329 -5.121747 -8.343386 3.627770 -1.898771 -0.279344 1.663728 56.363656 -30.113550 -83.303797 18.087414 -9.260796 21.932768 -5.913252 -52.645476 -4.646547 -134.511774 83.387574 -121.655558 -29.925726 -2.466164 -5.352050 -0.039561 -11.269739 0.603109 -16.817581 -54.229638 20.255183 -74.730246 66.047617 -79.235896 30.536743 6.636050 14.894637 0.005901 -0.232484 -0.013146
-145.392846 49.149960 18.825582 176.465649 -31.993067 -4.658159 -0.371818 18.777445 1.673132 -0.079628 2.158273 0.162565 -0.136059 3.575589 0.267929 -0.492929 16.259111 1.175083 -1.491983 20.980273 2.160122 -3.326568 3.253209 4.347656 3.402319 -12.342621 -3.478248 0.672561 1.655485 -0.010320 -46.366848 -23.200044 76.135336 -5.288853 -7.560168 -5.779967 -5.066338 -8.254499 3.665374 -1.825859 -0.158504 1.909972 56.369576 -30.430489 -83.477058 18.089663 -9.454532 21.968425 -5.933768 -52.633886 -4.639046 -134.532357 83.370217 -121.702164 -29.905610 -2.474714 -5.353011 -0.085277 -11.265258 0.631878 -16.878132 -54.180752 20.328045 -74.601385 66.035006 -79.181295 30.483491 6.629257 14.900398 0.024149 -0.223270 0.008512
-145.392943 49.157847 18.824097 176.493337 -31.995280 -4.666539 -0.375632 18.759053 1.671953 -0.082501 2.163044 0.164833 -0.139627 3.580631 0.269636 -0.470781 16.243614 1.184183 -1.669895 20.929603 2.164504 -3.652546 3.168211 4.408492 3.247995 -12.234362 -3.439310 0.562784 1.680584 -0.161773 -46.394651 -23.083964 76.285049 -5.460661 -7.773076 -6.150084 -4.993460 -8.158319 3.709502 -1.757934 -0.044374 2.140312 56.399757 -30.637598 -83.647496 18.127847 -9.608261 22.093945 -5.953328 -52.628500 -4.630058 -134.450581 83.358537 -121.632896 -29.934267 -2.472189 -5.350216 -0.081511 -11.268133 0.645688 -16.902847 -54.167975 20.337961 -74.552598 66.027628 -79.156639 30.503807 6.649939 14.910697 0.022690 -0.244869 0.015200
-145.397451 49.162860 18.826023 176.533748 -31.982836 -4.663093 -0.398375 18.721240 1.645609 -0.097802 2.184702 0.171353 -0.133531 3.574053 0.270104 -0.459957 16.235152 1.187741 -1.857176 20.871678 2.172153 -4.007641 3.084517 4.487857 3.101546 -12.137447 -3.409800 0.439343 1.714123 -0.301123 -46.412241 -22.936855 76.405154 -5.637361 -7.960598 -6.509309 -4.909208 -8.060375 3.759558 -1.670284 0.059126 2.352970 56.430562 -30.732748 -83.814808 18.185246 -9.715346 22.292762 -5.953297 -52.640421 -4.655725 -134.384303 83.347763 -121.576154 -29.954377 -2.465544 -5.350664 -0.065644 -11.272380 0.659560 -16.919478 -54.174128 20.324203 -74.501032 66.011879 -79.128265 30.510902 6.641299 14.916878 0.029617 -0.227179 0.020976
-145.399151 49.169390 18.825149 176.564088 -32.009581 -4.678466 -0.411930 18.733434 1.640408 -0.090315 2.178055 0.174400 -0.131592 3.572570 0.271286 -0.451671 16.232371 1.186396 -2.065198 20.820333 2.193310 -4.393409 3.001765 4.587942 2.944446 -12.039537 -3.380849 0.319905 1.753366 -0.424988 -46.434693 -22.772447 76.492379 -5.804765 -8.127484 -6.849699 -4.834306 -7.947890 3.817029 -1.552907 0.148916 2.548783 56.445777 -30.721787 -83.975343 18.252663 -9.776891 22.544165 -5.965297 -52.615646 -4.638152 -134.421512 83.356939 -121.643059 -30.009995 -2.439508 -5.308123 -0.049461 -11.282525 0.648655 -16.932261 -54.136963 20.328530 -74.460868 65.989547 -79.103811 30.519902 6.660683 14.914356 0.029517 -0.241178 0.036279
-145.396234 49.172467 18.829671 176.579951 -32.020710 -4.725131 -0.408445 18.740408 1.678578 -0.079517 2.160552 0.165170 -0.128219 3.570577 0.271622 -0.439368 16.228848 1.188495 -2.292021 20.773440 2.226061 -4.805884 2.915823 4.705148 2.783327 -11.949515 -3.355427 0.221270 1.805490 -0.533643 -46.475909 -22.606595 76.551743 -5.953116 -8.280832 -7.173487 -4.766339 -7.831121 3.872365 -1.409455 0.229159 2.729835 56.445247 -30.613594 -84.124441 18.330088 -9.796207 22.825892 -6.002331 -52.603202 -4.552291 -134.204713 83.336803 -121.430053 -30.071316 -2.431853 -5.292151 -0.042334 -11.277975 0.655783 -16.931870 -54.132404 20.359840 -74.513621 65.968352 -79.125380 30.509068 6.677586 14.909487 0.046956 -0.249689 0.040159
-145.401026 49.172318 18.836787 176.607576 -32.024551 -4.742534 -0.417986 18.727620 1.673032 -0.075854 2.155886 0.156586 -0.128277 3.572882 0.281850 -0.444470 16.239997 1.190005 -2.523809 20.714520 2.260060 -5.239287 2.822585 4.836455 2.644094 -11.889368 -3.342407 0.138904 1.878700 -0.628526 -46.536608 -22.454810 76.591613 -6.074952 -8.422300 -7.489128 -4.694964 -7.736175 3.913175 -1.242622 0.308818 2.896628 56.434760 -30.422334 -84.257276 18.421159 -9.785722 23.118938 -6.018203 -52.598197 -4.547265 -134.204332 83.343517 -121.435607 -30.067740 -2.431250 -5.286944 -0.107113 -11.267125 0.668010 -16.924101 -54.140279 20.342398 -74.503105 65.964362 -79.109109 30.529347 6.705044 14.929241 0.032168 -0.267133 0.036312
-145.408523 49.169309 18.847559 176.613837 -32.017705 -4.743296 -0.419086 18.713286 1.653680 -0.077472 2.161771 0.160891 -0.125212 3.568144 0.274889 -0.448311 16.248083 1.200397 -2.763748 20.652085 2.298548 -5.689175 2.724485 4.978779 2.523949 -11.846007 -3.334537 0.053755 1.968351 -0.716237 -46.604046 -22.323755 76.619516 -6.166506 -8.554578 -7.799676 -4.629598 -7.656690 3.939866 -1.060170 0.393801 3.049200 56.417848 -30.168941 -84.375495 18.525290 -9.772324 23.416755 -6.009380 -52.610059 -4.547016 -134.255964 83.391018 -121.511600 -30.074892 -2.394681 -5.282962 -0.143558 -11.262965 0.675193 -16.917837 -54.152694 20.334970 -74.459701 65.971495 -79.072493 30.539890 6.723604 14.949985 0.016487 -0.273636 0.030544
-145.412675 49.166993 18.858247 176.621098 -32.026742 -4.773649 -0.412545 18.724550 1.677008 -0.079374 2.162133 0.161432 -0.124620 3.567039 0.277154 -0.453269 16.249873 1.197363 -3.018228 20.592415 2.337200 -6.149538 2.629317 5.129971 2.417380 -11.804077 -3.335326 -0.049481 2.064903 -0.805906 -46.667325 -22.216325 76.644232 -6.234224 -8.677536 -8.102674 -4.597890 -7.620075 3.949147 -0.860969 0.523941 3.182483 56.410719 -29.883537 -84.482350 18.639187 -9.772123 23.724349 -6.020361 -52.598102 -4.513644 -134.166157 83.406307 -121.421970 -30.061254 -2.379785 -5.286278 -0.069240 -11.252815 0.662361 -16.901833 -54.161757 20.335047 -74.506564 65.976925 -79.088456 30.540637 6.738401 14.947341 0.020432 -0.280292 0.032783
-145.418717 49.163095 18.872008 176.654871 -32.021116 -4.816095 -0.433628 18.725619 1.694119 -0.079607 2.160401 0.165669 -0.128199 3.570238 0.272399 -0.454804 16.247939 1.200508 -3.274412 20.535183 2.381014 -6.615269 2.542527 5.288242 2.327246 -11.763064 -3.338635 -0.175751 2.165500 -0.901988 -46.720849 -22.138634 76.670616 -6.286197 -8.787862 -8.394488 -4.544143 -7.522475 3.954088 -0.702362 0.591659 3.277171 56.429191 -29.600231 -84.571375 18.761288 -9.784697 24.041653 -6.051757 -52.598076 -4.485990 -134.047958 83.421269 -121.299102 -30.066007 -2.367502 -5.284097 -0.072999 -11.240540 0.660399 -16.864548 -54.205160 20.304782 -74.545908 66.016926 -79.077281 30.534585 6.787051 14.956360 0.029106 -0.305731 0.034957
-145.428427 49.160616 18.883959 176.679118 -32.034017 -4.838101 -0.449797 18.742157 1.695313 -0.080827 2.160549 0.165594 -0.130229 3.570528 0.272167 -0.464146 16.248418 1.198297 -3.524021 20.485523 2.431793 -7.080380 2.463281 5.446763 2.250180 -11.718916 -3.337630 -0.317489 2.264484 -1.002037 -46.763383 -22.097946 76.697115 -6.329458 -8.886611 -8.674998 -4.500245 -7.415194 3.958572 -0.558832 0.648336 3.336277 56.472298 -29.345968 -84.635996 18.885282 -9.811948 24.363048 -6.050887 -52.580056 -4.494157 -133.950740 83.437386 -121.192857 -30.073236 -2.364530 -5.282618 -0.083024 -11.223190 0.659385 -16.867252 -54.198684 20.296811 -74.511001 66.045247 -79.037887 30.512474 6.798568 14.968920 0.042013 -0.298651 0.031221
-145.432720 49.160817 18.894127 176.677435 -32.071066 -4.884080 -0.450204 18.776503 1.720773 -0.070998 2.162966 0.172764 -0.148555 3.580523 0.265809 -0.451013 16.245555 1.205597 -3.769376 20.442620 2.478206 -7.534333 2.386732 5.597647 2.185170 -11.669142 -3.339519 -0.464317 2.352921 -1.101437 -46.804549 -22.096930 76.720394 -6.371946 -8.964152 -8.941734 -4.471065 -7.349269 3.958822 -0.434106 0.736947 3.356315 56.536343 -29.144974 -84.673259 18.999695 -9.856970 24.686904 -6.069535 -52.537010 -4.447642 -133.843557 83.458763 -121.077324 -30.064359 -2.349738 -5.278507 -0.107395 -11.210569 0.653055 -16.887484 -54.159179 20.340762 -74.487788 66.063086 -79.007688 30.518501 6.849186 14.983067 0.047561 -0.336103 0.025240
